<svg width="600" height="326" xmlns="http://www.w3.org/2000/svg" clip-rule="evenodd" role="img" enableBackground="0 0 21200 12400" version="1.1" xml:space="preserve">
 <!-- <defs>
  <style type="text/css">
   <![CDATA[
    .fil0 {fill:#2B2A29;fill-rule:nonzero}
   ]]>
  </style>
 </defs> -->

 <g>
  <title>Слой 1</title>
  <g stroke="null" id="Слой_x0020_1">
   <metadata stroke="null" id="CorelCorpID_0Corel-Layer"/>
   <g stroke="null" id="_1693316795984">
    <g stroke="null" id="svg_1">
     <polygon stroke="null" id="svg_2" points="297.1297473181039,152.33375359698584 297.1297473181039,42.51352170551286 182.55496982201294,42.51352170551286 227.16700335554378,0 342.07863773367535,0 342.07863773367535,53.51554078941945 342.07863773367535,109.5073804254298 " class="fil0"/>
     <polygon stroke="null" id="svg_3" points="342.076677008572,325.9775294743122 227.17338109873708,325.9775294743122 182.5527289933234,283.45793436892563 297.12744185012525,283.45793436892563 297.12744185012525,173.790183867186 342.076677008572,216.6371123326826 " class="fil0"/>
     <polygon stroke="null" id="svg_4" points="0,109.50315732520721 0,53.5094754694569 0,0.0021102766113025723 114.90969519945793,0.0021102766113025723 159.52370023130698,42.51536661855653 44.94062466647506,42.51536661855653 44.94062466647506,152.33584360066743 " class="fil0"/>
     <polygon stroke="null" id="svg_5" points="0,216.61864704242362 44.94062466647506,173.77171857692701 44.94062466647506,283.44552362541435 159.52370023130698,283.44552362541435 114.90331745626463,325.9651618236603 0,325.9796625708532 " class="fil0"/>
     <g stroke="null" id="svg_6">
      <polygon stroke="null" id="svg_7" points="397.2312277727724,145.96648196852584 397.2312277727724,114.16695744781009 404.3369386401537,114.16695744781009 404.3369386401537,134.7107348216923 419.80412939110465,114.16695744781009 427.1109977262313,114.16695744781009 427.1109977262313,145.96648196852584 419.9987798370785,145.96648196852584 419.9987798370785,124.65407880770272 404.09053367002343,145.96648196852584 " class="fil0"/>
      <polygon stroke="null" id="svg_8" points="432.5843510790037,145.96648196852584 432.5843510790037,122.93822887797887 438.9442969213633,122.93822887797887 438.9442969213633,131.4684065329402 448.9467959842841,131.4684065329402 448.9467959842841,122.93822887797887 455.3064401766278,122.93822887797887 455.3064401766278,145.96648196852584 448.9467959842841,145.96648196852584 448.9467959842841,136.76262286912788 438.9442969213633,136.76262286912788 438.9442969213633,145.96648196852584 " class="fil0"/>
      <path stroke="null" id="svg_9" d="m475.35455,125.89013l0,-11.72317l6.3533,0l0,11.67992c1.60189,-2.24129 3.90216,-3.4834 6.4571,-3.4834c5.346,0 9.25674,4.38551 9.25674,12.06318c0,7.67952 -3.91075,12.11435 -9.25674,12.11435c-2.50318,0 -4.75999,-1.14926 -6.4571,-3.53484l0,11.73162l-6.3533,0l0,-11.73162c-1.59967,2.29272 -3.90189,3.53484 -6.4571,3.53484c-5.35458,0 -9.25646,-4.38551 -9.25646,-12.06503c0,-7.67741 3.90189,-12.1125 9.25646,-12.1125c2.50318,0 4.69965,1.14109 6.4571,3.52666zm-9.3085,8.58585l0,0c0,3.95292 2.04727,6.67216 4.90061,6.67216c1.65393,0 3.50661,-1.1432 4.40789,-2.61822l0,-8.15537c-0.85589,-1.43361 -2.75396,-2.6264 -4.40789,-2.6264c-2.85334,0 -4.90061,2.71925 -4.90061,6.72782zm24.91854,-0.04933l0,0c0,-3.95925 -2.00409,-6.6785 -4.90725,-6.6785c-1.60189,0 -3.49996,1.15164 -4.34949,2.6264l0,8.15537c0.84952,1.42544 2.7476,2.61822 4.34949,2.61822c2.90316,0 4.90725,-2.71925 4.90725,-6.72149z" class="fil0"/>
      <path stroke="null" id="svg_10" d="m500.19309,134.42665c0,-6.52814 4.80345,-12.06318 12.75643,-12.06318c8.00695,0 12.8104,5.53503 12.8104,12.06318c0,6.57932 -4.80345,12.11435 -12.8104,12.11435c-7.95297,0 -12.75643,-5.53503 -12.75643,-12.11435zm18.96053,0l0,0c0,-3.57625 -2.24824,-6.6785 -6.2041,-6.6785c-3.94728,0 -6.15234,3.10225 -6.15234,6.6785c0,3.62742 2.20505,6.72149 6.15234,6.72149c3.95586,0 6.2041,-3.09407 6.2041,-6.72149z" class="fil0"/>
      <path stroke="null" id="svg_11" d="m535.85096,143.00616l0,11.73162l-6.35994,0l0,-31.79955l6.35994,0l0,2.90864c1.84603,-2.24129 4.49869,-3.4834 7.45361,-3.4834c6.20438,0 10.70279,4.38551 10.70279,12.06318c0,7.67952 -4.49841,12.11435 -10.70279,12.11435c-2.85112,0 -5.50378,-1.14926 -7.45361,-3.53484zm11.55895,-8.57952l0,0c0,-3.95925 -2.45806,-6.6785 -6.10694,-6.6785c-2.05585,0 -4.40125,1.15164 -5.45201,2.6264l0,8.15537c1.05076,1.42544 3.39616,2.61822 5.45201,2.61822c3.64888,0 6.10694,-2.71925 6.10694,-6.72149z" class="fil0"/>
     </g>
     <g stroke="null" id="svg_12">
      <polygon stroke="null" id="svg_13" points="579.6629951097202,145.96648196852584 579.6629951097202,130.9925967257186 573.2144934412645,145.96648196852584 570.3092159524203,145.96648196852584 563.8089597598082,130.9925967257186 563.8089597598082,145.96648196852584 557.4489277317298,145.96648196852584 557.4489277317298,122.93822887797887 565.8042022435438,122.93822887797887 571.7618762432721,136.6697900767349 577.6157826375311,122.93822887797887 586.0250094093317,122.93822887797887 586.0250094093317,145.96648196852584 " class="fil0"/>
     </g>
     <g stroke="null" id="svg_14">
      <path stroke="null" id="svg_15" d="m396.93509,67.36262l0,-67.08434l32.93214,0c15.305,0 23.63637,9.85671 23.63637,21.62314c0,11.66567 -8.43711,21.62341 -23.63637,21.62341l-17.94049,0l0,23.83779l-14.99165,0zm41.27209,-45.4612l0,0c0,-5.62762 -4.43806,-9.0493 -10.34404,-9.0493l-15.9364,0l0,18.10492l15.9364,0c5.90598,0 10.34404,-3.52033 10.34404,-9.05563z" class="fil0"/>
      <polygon stroke="null" id="svg_16" points="477.06876510937946,67.36262855765744 477.06876510937946,12.852127510439004 456.48481441730837,12.852127510439004 456.48481441730837,0.2782817135200677 512.6358444626021,0.2782817135200677 512.6358444626021,12.852127510439004 492.1578591118305,12.852127510439004 492.1578591118305,67.36262855765744 " class="fil0"/>
     </g>
    </g>
   </g>
  </g>
 </g>
</svg>